<svg xmlns="http://www.w3.org/2000/svg" viewBox="0 0 231 231"><path d="M33.83,33.83a115.5,115.5,0,1,1,0,163.34,115.49,115.49,0,0,1,0-163.34Z" style="fill:#FF9800;"/><path d="m115.5 51.75a63.75 63.75 0 0 0-10.5 126.63v14.09a115.5 115.5 0 0 0-53.729 19.027 115.5 115.5 0 0 0 128.46 0 115.5 115.5 0 0 0-53.729-19.029v-14.084a63.75 63.75 0 0 0 53.25-62.881 63.75 63.75 0 0 0-63.65-63.75 63.75 63.75 0 0 0-0.09961 0z" style="fill:#f7c1a6;"/><path d="M61.11,205.59l3.49,3.69-6.26,6.6A115.45,115.45,0,0,0,72,222.51v-22a115.19,115.19,0,0,0-10.85,5.1Z" style="fill:#e000cb;"/><path d="M93.24,228.85V199l-4-4A114.43,114.43,0,0,0,72,200.49v22a114.43,114.43,0,0,0,21.28,6.34Z" style="fill:#fff;"/><path d="m159 222.51v-22a114.63 114.63 0 0 0-17.25-5.51l-4 4v29.86a114.16 114.16 0 0 0 21.25-6.35z" style="fill:#fff;"/><path d="m169.89 205.59-3.49 3.69 6.26 6.6a115.45 115.45 0 0 1-13.66 6.63v-22a115.19 115.19 0 0 1 10.85 5.1z" style="fill:#e000cb;"/><path d="M115.5,219.62A28.5,28.5,0,0,1,87.25,195c2.93-.74,5.92-1.36,8.94-1.87a19.41,19.41,0,0,0,38.62,0c3,.51,6,1.13,8.94,1.87a28.49,28.49,0,0,1-28.25,24.63Z" style="fill:#ffce1c;"/><path d="m109.99 15.57c-13.46 3.6301-19.789 11.95-24.069 24.08-6.9996-7-8.7307-10.82-7.5606-21.43a41 41 0 0 0-9.2698 24.988c0.0366 7.6776 5.6462 13.939 12.697 15.297-13.315 5.8106-15.258 22.033-14.045 33.524 5.7687-11.861 14.254-20.981 27.258-22.951-0.43017 6.6-2.5099 10.22-7.29 17.66 18.29-2.8601 25.119-7.8199 37.15-18.24 0.46001 0 1.0001 0.089 1.4606 0.12058-0.33023 3.5601-1.0906 6.5598-5.0004 12.46 9.5298-1.32 14.721-5.8006 17.539-11.671 8.8862 0.95314 15.836 6.785 21.26 14.818 1.928-15.211-4.4766-26.6-19.807-34.036 1.4167-2.6974 8.0143-11.925 17.661-15.721-1.424-0.28569-2.8883-0.49486-4.4033-0.61125-5.71-0.41992-13.62-0.99982-24.89 4.1703 2.8501-8.5101 10.21-11 18.05-13.12-15.131-1.2501-28.61-2.5898-40.53 8.1801-1.8997-6.21-0.18055-12.54 3.7889-17.52z" style="fill:#fff539;"/><path d="m172.63 69.954c1.2292 14.064 0.93841 29.96 0.34635 45.169 1.7887 6.796 3.0379 13.235 3.8842 18.388l0.13973-0.011c1.0001 6.56 2.3597 13.18 3.2698 19.73 2.0002-6.5699 2.5303-18.25 3.2405-25.43 1.2597-13 1.8296-29.311-0.43017-41.931-0.85041-4.72-2.0007-7.6896-2.0007-8.4796 4.6205 3.5601 8.6606 9.2204 13.001 14.15-0.6751-3.4318-1.347-6.6004-2.0567-9.5273-4.047-5.7183-13.726-12.154-19.393-12.06z" style="fill:none;"/><path d="m157.97 34.471c-10.339 2.7579-17.715 13.543-19.132 16.24 15.33 7.4361 20.783 17.96 21.278 33.517 5.9534 8.8179 10.066 20.289 12.857 30.895 0.87636-13.178 1.8186-27.726 0.26566-44.28 2.5698 0.44857 9.1372 1.3934 18.781 11.17-2.1158-8.7321-4.5671-15.31-8.4539-20.283-4.5598-5.8401-10.999-10.431-23.809-13 9.6502-3.34 16.27-0.76993 25.5 2.1301-8.1388-7.4315-16.474-14.219-27.287-16.389z" style="fill:#fff539;"/><path d="m61.473 73.354c-7.256-0.77501-13.024 2.3746-16.262 5.3879 0.73789-0.45409 1.3868-0.74208 1.8489-0.74208 0 0-1.5198 10.359-1.6197 11.519-1.56 19.73 0.99957 43.401 6.37 62.471 1.3099 4.6899 1.1895 3.0893 1.8898-0.9107 1.7526-10.061 3.3891-24.703 6.9739-38.864-5.068-17.627-4.2508-32.403 0.79937-38.861z" style="fill:none;"/><path d="m69.09 43.21c-0.0253 1.0803-8e-3 2.1612 0.0523 3.2402-3.8402 0-12.46 0.71984-16 2.1598-4.4504 1.8001-8.48 5.4801-11.67 11.83 7.2999-3.94 11.899-3.8502 16.66-1.8102-10.39 3.45-19.52 11.37-20.32 26.9 1.1456-1.5053 4.6079-4.9789 7.1393-6.6285 0.09-0.0587 0.17427-0.10556 0.26167-0.15946 3.7141-2.3211 9.0494-5.1247 15.181-4.9553-5.0501 6.4577-6.6824 20.434 0.28207 38.428 1.7866-7.0567 4.0574-13.994 7.0681-20.184-1e-3 -11.664 2.0764-27.774 15.391-33.585-7.0508-2.1538-12.709-7.991-14.043-15.236z" style="fill:#fff539;"/><path d="m83.739 83.92h63.533a19.101 19.1 0 0 1 19.051 19 19.111 19.11 0 0 1-19.051 19h-63.533a19.091 19.09 0 0 1-19.001-19 19.091 19.09 0 0 1 19.001-19z" style="fill:#000;"/><path d="m140.23 93.54a9.3804 9.38 0 1 0 9.3804 9.38 9.3804 9.38 0 0 0-9.3804-9.38zm-49.402 0a9.3804 9.38 0 1 0 9.3804 9.38 9.3904 9.39 0 0 0-9.3804-9.38z" style="fill:none;"/><rect x="79.795" y="98.627" width="71.471" height="8.5859" ry="4.2929" style="fill:#00FFFF;"/><path d="m115.5 153.93a14 14 0 0 1-10.5-4.69 3.4209 3.4209 0 0 1 5-4.67l0.08 0.08 0.08 0.09a7.35 7.35 0 0 0 10.39 0.37l0.37-0.37a3.4206 3.4206 0 1 1 5.23 4.41l-0.08 0.09a14 14 0 0 1-10.53 4.69z" /><path d="m115.27 127.32c-7.6627-0.03-15.251 1.4419-20.646 5.1465-7.62 5.33-9.9053 11.512-14.127 18.109-3.4379 5.2447-9.326 10.024-13.467 6.334 25.425 29.755 71.409 29.786 96.875 0.0664-6.8104 3.9305-11.545-2.47-13.508-6.4004-10.697-17.605-14.115-22.656-35.127-23.256zm-0.26758 8.3984c7.457 0.0802 14.986 1.2966 17.146 5.9522 2.5765 11.319-7.5878 17.454-16.681 17.515-6.09-0.05-12.2-2.3802-15.26-7.7402-6.36-11.16 3.6349-15.607 14.795-15.727z" style="fill:#3a484a;"/></svg>