<svg xmlns="http://www.w3.org/2000/svg" viewBox="0 0 231 231"><path d="M33.83,33.83a115.5,115.5,0,1,1,0,163.34,115.49,115.49,0,0,1,0-163.34Z" style="fill:#B400C2;"/><path d="m115.5 51.75a63.75 63.75 0 0 0-10.5 126.63v14.09a115.5 115.5 0 0 0-53.729 19.027 115.5 115.5 0 0 0 128.46 0 115.5 115.5 0 0 0-53.729-19.029v-14.084a63.75 63.75 0 0 0 53.25-62.881 63.75 63.75 0 0 0-63.65-63.75 63.75 63.75 0 0 0-0.09961 0z" style="fill:#dbbc7f;"/><path d="m141.75 195a114.79 114.79 0 0 1 38 16.5 115.53 115.53 0 0 1-128.46 0 114.79 114.79 0 0 1 38-16.5c0 10.76 11.75 19.48 26.25 19.48s26.25-8.72 26.25-19.48z" style="fill:#00650b;"/><path d="m92.502 194.27v0.70391c0 4.3033 2.4373 8.2583 6.3807 11.183 4.2199 3.1204 10.106 5.0508 16.661 5.0508 6.548 0 12.434-1.9303 16.654-5.0508 3.9434-2.9245 6.388-6.8795 6.388-11.183v-0.67489c1.0768 0.21771 2.1463 0.44994 3.2158 0.69666h-7e-3c1.0695 0.24672 2.1318 0.50798 3.1867 0.791-0.27648 6.103-3.6524 11.553-8.9708 15.493-5.2821 3.9114-12.521 6.328-20.466 6.328-7.9449 0-15.184-2.4165-20.474-6.328-5.333-3.9477-8.7089-9.4194-8.9708-15.544 1.055-0.27577 2.1099-0.53702 3.1722-0.78376 1.0695-0.23947 2.1463-0.46443 3.2304-0.68213z" style="fill:#62ce5a;"/><path d="m156.1 15.879c-0.38556 5.3015-1.7049 9.4762-3.6602 12.76-0.41226 23.773-9.2343 35.229-15.154 42.797l15.062-4.6641c-0.66253 2.8135-2.4628 7.156-0.34766 12.137 1.6334-2.3144 7.9395-5.807 13-3.3477-0.43442 3.5532-0.95271 7.094-1.4512 10.639l8.9648 0.85937c0.83453 3.8792 0.51719 9.3449-0.59961 11.736l5.5508 2.0098c0.20764 2.7646 0.10001 5.4906-0.74609 8.875 8.4545-1.7225 14.213-4.3896 19.641-13.188 2.8639-4.7524 4.9018-10.483 4.7305-17.242-4.1612 4.916-9.6484 7.2485-15.26 10.109 6.507-11.065 8.8648-22.768 8.1367-30.58-7.3456 10.251-11.649 13.06-19.918 16.9 1.2386-11.4 5.5249-18.582 12.461-27.27-11.392-1.3025-16.301 1.4749-24.891 6.4395 4.5466-14.036 2.2208-26.679-5.5195-38.971zm-117.76 28.682c9.3378 3.6366 19.581 9.0234 21.129 18.549-7.6182 0.0414-14.897-3.5072-20.242-7.1894-0.15967 8.2309 2.8451 12.252 6.7734 19.08-7.2127 1.6129-12.084 4.8315-17.471 9.4805 7.2948-0.15715 12.299-1.0502 16.891 4.2793-6.0512 5.0164-11.99 10.79-11.99 19.24 9.257-6.1688 12.495-5.9486 21.137-2.2012 1.2906-8.0996 2.3978-14.872 2.7869-16.435 2.4719-0.73247 3.5247-0.94807 5.9221-1.2938-2.1556-7.4281 1.0996-9.5176 2.4141-11.6l7.543 1.5059c-3.9093-6.1699 2.6565-12.483 7.1445-15.51-4.4474-7.2082-5.6649-11.558-7.377-16.797-11.198-8.2947-23.895-6.2742-34.66-1.1094z" style="fill:none;"/><path d="m101.9 7.6408c-10.047 6.2416-12.441 28.646-12.131 33.289-6.9249-5.8258-7.8992-13.75-7.7695-19.203-9.6235 6.0158-10.666 14.421-9 23.943 1.1061 5.1411 2.3972 10.461 7.377 16.797 2e-3 -1e-3 4e-3 -3e-3 6e-3 -4e-3 2.7742 2.8742 5.4644 5.5941 8.3477 8.3574 0.41187-6.971 0.45449-13.622 7.1856-15.824 3.9532 2.8169 7.4123 5.9388 11.084 9.1035l10.559-10.25c5.6447 3.961 5.4531 6.5652 6.5215 14.104 2.153-1.7546 8.719-9.0037 15.844-10.139 0.98706 4.1261-0.99388 10.308-2.6387 13.621 0 0 14.32-11.846 15.195-27.971 0.33968-6.2599 0.2237-11.146-0.041-14.826-3.2125 5.5652-8.7118 8.7799-13.789 10.15-4.2715-9.2486-2.4785-21.435-0.48047-29.309-12.21 3.0195-20.932 18.337-22.172 25.07-9.2678-7.397-13.605-16.146-14.098-26.91z" style="fill:#00efff;"/><path d="m172.7 90.75h-6.54c-0.14-0.1-0.26-0.22-0.4-0.3-4.48-2.76-22.75-2.11-33.71 1.2-1 0.3-1.91 0.61-2.75 0.94-1.8937 0.79244-3.8739 1.3597-5.9 1.69-5.5051 0.79002-10.403 0.79002-15.908 0-2.0261-0.33034-4.0063-0.89756-5.9-1.69-0.84-0.33-1.76-0.64-2.75-0.94-11-3.31-29.23-4-33.71-1.2-0.13832 0.08869-0.2688 0.18906-0.39 0.3h-6.55c-1.1046 0-2 0.89543-2 2v4.66c-0.0013 0.98185 0.49088 1.8986 1.31 2.44l1.9 1.27c0.59238 0.38889 0.93475 1.0622 0.9 1.77-0.14175 5.4854 0.88072 10.939 3 16 3.58 8.38 16 10.9 24.93 10.9 2.6976 0.0771 5.3921-0.2361 8-0.93 4.35-1.43 8.24-7.36 10.45-12.42 1.7607-3.8506 2.7493-8.009 2.91-12.24 7.3e-4 -0.7138 0.38183-1.3731 1-1.73 3.2281-1.951 6.5798-1.951 9.8079 0 0.61817 0.3569 0.99927 1.0162 1 1.73 0.16067 4.231 1.1493 8.3894 2.91 12.24 2.21 5.06 6.1 11 10.45 12.42 2.6079 0.6939 5.3024 1.0071 8 0.93 8.92 0 21.35-2.52 24.93-10.9 2.1193-5.0614 3.1418-10.515 3-16-0.0348-0.70778 0.30762-1.3811 0.9-1.77l1.9-1.27c0.81913-0.54136 1.3113-1.4582 1.31-2.44v-4.6c0.0336-1.1048-0.83521-2.0274-1.94-2.06z" style="fill:#000;stroke-linecap:round;stroke-linejoin:round;stroke-width:2.5;stroke:#00ffdc;"/><path d="m100.19 152.09c2.8726 4.0616 9.8095 4.7232 15.119-0.45432 5.0656 4.5134 11.167 5.6898 15.495 0.31458" style="fill:none;stroke-linecap:round;stroke-linejoin:round;stroke-width:5.8949;stroke:#111;"/><path d="m109.67 135.53c-0.9758 0.0743-2.05 0.45327-3.1485 0.99414-4.3235 2.1399-7.3862 4.2557-10.639 7.1406-0.6251 0.5715 0.1168 0.77785 1.4238 0.87304 5.6967 0.0536 14.384 0.41404 15.098-0.875 1.9251-2.0788 1.7969-5.3303-0.1816-7.3008-0.701-0.67533-1.5769-0.90632-2.5527-0.83203zm11.656 0c-0.9758-0.0743-1.8517 0.1567-2.5527 0.83203-1.9785 1.9705-2.1067 5.222-0.1817 7.3008 0.7142 1.289 9.401 0.9286 15.098 0.875 1.307-0.0952 2.0489-0.30154 1.4238-0.87304-3.2524-2.8849-6.3151-5.0007-10.639-7.1406-1.0985-0.54087-2.1727-0.91985-3.1485-0.99414z" style="fill:none;"/></svg>